<svg xmlns="http://www.w3.org/2000/svg" width="48" viewBox="0 0 48 48" height="48" version="1.0"><defs><clipPath id="a"><path d="M 1.242188 0.820312 L 46.757812 0.820312 L 46.757812 46.371094 L 1.242188 46.371094 Z M 1.242188 0.820312"/></clipPath></defs><g clip-path="url(#a)"><path fill="#FF1616" d="M 17.160156 25.230469 C 17.09375 25.226562 17.015625 25.203125 16.917969 25.144531 C 16.695312 25.019531 16.476562 24.730469 16.246094 24.4375 C 15.679688 23.722656 15.011719 23.324219 14.195312 23.515625 C 14.011719 23.558594 13.816406 23.632812 13.617188 23.738281 C 13.101562 24.011719 13.410156 23.914062 13.914062 23.878906 C 14.203125 23.855469 14.550781 23.851562 14.851562 23.941406 C 15.789062 24.226562 16.0625 25.582031 16.96875 26.109375 C 16.90625 25.761719 17.011719 25.460938 17.160156 25.230469 Z M 17.363281 25.25 C 17.191406 25.488281 17.058594 25.816406 17.175781 26.210938 C 17.226562 26.230469 17.277344 26.25 17.328125 26.261719 C 18.234375 26.515625 19.339844 26.296875 20.398438 25.414062 C 20.480469 25.34375 20.558594 25.269531 20.640625 25.191406 L 20.632812 25.183594 C 20.589844 25.109375 20.519531 25.046875 20.433594 24.996094 C 19.691406 24.519531 17.964844 24.4375 17.363281 25.25 Z M 17.296875 28.523438 C 17.226562 28.523438 17.148438 28.503906 17.046875 28.453125 C 16.816406 28.335938 16.585938 28.058594 16.339844 27.777344 C 15.742188 27.09375 15.054688 26.726562 14.25 26.957031 C 14.066406 27.007812 13.875 27.089844 13.679688 27.207031 C 13.179688 27.507812 13.484375 27.394531 13.984375 27.332031 C 14.269531 27.296875 14.621094 27.277344 14.925781 27.351562 C 15.875 27.589844 16.210938 28.929688 17.144531 29.414062 C 17.066406 29.066406 17.15625 28.765625 17.296875 28.523438 Z M 17.5 28.535156 C 17.335938 28.78125 17.21875 29.117188 17.359375 29.507812 C 17.410156 29.523438 17.460938 29.539062 17.511719 29.550781 C 18.429688 29.757812 19.523438 29.484375 20.535156 28.546875 C 20.613281 28.476562 20.691406 28.398438 20.765625 28.316406 L 20.761719 28.308594 C 20.710938 28.238281 20.640625 28.179688 20.550781 28.128906 C 19.789062 27.691406 18.058594 27.695312 17.5 28.535156 Z M 17.8125 32.035156 C 17.746094 32.042969 17.664062 32.03125 17.558594 31.988281 C 17.316406 31.902344 17.058594 31.652344 16.78125 31.402344 C 16.105469 30.789062 15.382812 30.503906 14.609375 30.820312 C 14.433594 30.894531 14.253906 31 14.070312 31.136719 C 13.605469 31.488281 13.898438 31.347656 14.390625 31.226562 C 14.667969 31.15625 15.015625 31.097656 15.324219 31.140625 C 16.296875 31.265625 16.78125 32.558594 17.765625 32.9375 C 17.644531 32.597656 17.703125 32.289062 17.8125 32.035156 Z M 18.015625 32.019531 C 17.882812 32.285156 17.804688 32.628906 17.988281 33 C 18.039062 33.011719 18.09375 33.019531 18.148438 33.027344 C 19.082031 33.128906 20.136719 32.734375 21.035156 31.6875 C 21.105469 31.609375 21.171875 31.519531 21.238281 31.433594 L 21.230469 31.421875 C 21.175781 31.359375 21.09375 31.308594 21.003906 31.269531 C 20.195312 30.921875 18.476562 31.121094 18.015625 32.019531 Z M 21.496094 22.257812 C 21.484375 22.269531 21.457031 22.296875 21.441406 22.308594 C 21.199219 22.546875 20.933594 22.789062 20.765625 23.035156 C 20.238281 23.796875 20.25 24.363281 19.722656 24.570312 C 19.992188 24.613281 20.300781 24.699219 20.53125 24.84375 C 20.625 24.90625 20.707031 24.976562 20.765625 25.0625 C 20.945312 24.863281 21.125 24.640625 21.292969 24.398438 C 21.28125 24.132812 21.292969 23.847656 21.3125 23.546875 C 21.335938 23.210938 21.378906 22.859375 21.445312 22.511719 C 21.460938 22.433594 21.472656 22.355469 21.492188 22.28125 C 21.492188 22.269531 21.496094 22.261719 21.496094 22.257812 Z M 21.484375 25.3125 C 21.128906 25.703125 20.832031 26.023438 20.59375 26.503906 C 20.296875 27.109375 20.257812 27.546875 19.820312 27.742188 C 20.089844 27.773438 20.40625 27.84375 20.640625 27.976562 C 20.738281 28.03125 20.824219 28.097656 20.886719 28.179688 C 21.070312 27.960938 21.246094 27.714844 21.414062 27.445312 C 21.351562 27.242188 21.3125 27.023438 21.304688 26.789062 C 21.289062 26.527344 21.3125 26.246094 21.367188 25.960938 C 21.371094 25.953125 21.386719 25.882812 21.410156 25.792969 C 21.441406 25.652344 21.460938 25.578125 21.472656 25.527344 L 21.511719 25.375 C 21.5 25.351562 21.492188 25.332031 21.484375 25.3125 Z M 31.703125 25.230469 C 31.769531 25.230469 31.847656 25.203125 31.949219 25.144531 C 32.171875 25.023438 32.386719 24.730469 32.621094 24.4375 C 33.183594 23.726562 33.855469 23.328125 34.667969 23.515625 C 34.855469 23.558594 35.050781 23.632812 35.25 23.738281 C 35.765625 24.015625 35.457031 23.917969 34.949219 23.878906 C 34.664062 23.859375 34.3125 23.851562 34.011719 23.945312 C 33.078125 24.230469 32.804688 25.582031 31.894531 26.113281 C 31.957031 25.761719 31.855469 25.464844 31.703125 25.230469 Z M 31.5 25.253906 C 31.675781 25.492188 31.808594 25.820312 31.6875 26.214844 C 31.640625 26.234375 31.589844 26.25 31.535156 26.265625 C 30.628906 26.519531 29.527344 26.296875 28.46875 25.414062 C 28.386719 25.34375 28.304688 25.273438 28.226562 25.195312 L 28.230469 25.183594 C 28.277344 25.113281 28.347656 25.050781 28.429688 24.996094 C 29.171875 24.523438 30.902344 24.441406 31.5 25.253906 Z M 31.570312 28.527344 C 31.636719 28.527344 31.714844 28.507812 31.820312 28.453125 C 32.046875 28.339844 32.277344 28.0625 32.523438 27.777344 C 33.125 27.09375 33.8125 26.730469 34.617188 26.957031 C 34.800781 27.011719 34.988281 27.09375 35.183594 27.210938 C 35.6875 27.507812 35.382812 27.398438 34.878906 27.335938 C 34.59375 27.296875 34.242188 27.277344 33.941406 27.355469 C 32.992188 27.59375 32.652344 28.933594 31.71875 29.417969 C 31.800781 29.070312 31.710938 28.765625 31.570312 28.527344 Z M 31.367188 28.539062 C 31.53125 28.785156 31.644531 29.117188 31.507812 29.507812 C 31.457031 29.523438 31.40625 29.539062 31.351562 29.550781 C 30.4375 29.757812 29.34375 29.484375 28.328125 28.550781 C 28.253906 28.476562 28.175781 28.402344 28.101562 28.320312 L 28.105469 28.308594 C 28.15625 28.242188 28.226562 28.179688 28.3125 28.132812 C 29.078125 27.695312 30.808594 27.695312 31.367188 28.539062 Z M 31.050781 32.035156 C 31.117188 32.042969 31.199219 32.03125 31.308594 31.992188 C 31.546875 31.902344 31.808594 31.65625 32.085938 31.402344 C 32.757812 30.789062 33.484375 30.507812 34.257812 30.824219 C 34.433594 30.898438 34.613281 31 34.792969 31.140625 C 35.257812 31.492188 34.96875 31.351562 34.476562 31.230469 C 34.195312 31.160156 33.851562 31.097656 33.542969 31.140625 C 32.570312 31.269531 32.082031 32.5625 31.097656 32.9375 C 31.21875 32.601562 31.164062 32.289062 31.050781 32.035156 Z M 30.847656 32.023438 C 30.984375 32.289062 31.058594 32.632812 30.878906 33.003906 C 30.828125 33.015625 30.773438 33.023438 30.71875 33.027344 C 29.785156 33.132812 28.730469 32.734375 27.828125 31.691406 C 27.757812 31.609375 27.691406 31.523438 27.628906 31.433594 L 27.632812 31.425781 C 27.691406 31.363281 27.769531 31.3125 27.859375 31.269531 C 28.671875 30.925781 30.390625 31.125 30.847656 32.023438 Z M 27.304688 22.183594 C 27.566406 22.445312 27.949219 22.816406 28.101562 23.035156 C 28.625 23.796875 28.617188 24.367188 29.140625 24.574219 C 28.875 24.617188 28.5625 24.703125 28.335938 24.847656 C 28.238281 24.90625 28.160156 24.980469 28.101562 25.0625 C 27.910156 24.859375 27.726562 24.625 27.546875 24.371094 C 27.550781 24.183594 27.546875 23.992188 27.539062 23.796875 C 27.511719 23.269531 27.429688 22.714844 27.304688 22.183594 Z M 27.371094 25.3125 C 27.609375 25.574219 27.929688 25.917969 28.078125 26.160156 C 28.566406 26.945312 28.53125 27.511719 29.042969 27.742188 C 28.773438 27.777344 28.460938 27.84375 28.226562 27.976562 C 28.128906 28.035156 28.042969 28.101562 27.980469 28.179688 C 27.789062 27.953125 27.605469 27.691406 27.425781 27.40625 C 27.453125 27.300781 27.476562 27.191406 27.488281 27.074219 C 27.511719 26.863281 27.503906 26.636719 27.480469 26.402344 C 27.449219 26.132812 27.394531 25.859375 27.328125 25.605469 L 27.296875 25.46875 C 27.324219 25.417969 27.347656 25.367188 27.371094 25.3125 Z M 27.375 28.558594 C 27.554688 28.804688 27.742188 29.046875 27.855469 29.285156 C 28.246094 30.121094 28.148438 30.683594 28.632812 30.972656 C 28.359375 30.972656 28.039062 31.003906 27.792969 31.109375 C 27.6875 31.15625 27.597656 31.210938 27.527344 31.285156 C 27.402344 31.101562 27.289062 30.902344 27.179688 30.691406 C 27.171875 30.664062 27.164062 30.636719 27.152344 30.613281 L 27.113281 30.511719 C 27.296875 30.199219 27.402344 29.828125 27.429688 29.445312 C 27.453125 29.148438 27.433594 28.84375 27.375 28.558594 Z M 21.457031 28.601562 C 21.289062 28.832031 21.117188 29.0625 21.011719 29.285156 C 20.617188 30.117188 20.71875 30.679688 20.234375 30.96875 C 20.503906 30.96875 20.828125 31 21.074219 31.105469 C 21.179688 31.152344 21.269531 31.207031 21.34375 31.28125 C 21.492188 31.054688 21.632812 30.796875 21.769531 30.523438 C 21.640625 30.277344 21.554688 29.996094 21.503906 29.699219 C 21.441406 29.335938 21.429688 28.953125 21.457031 28.601562 Z M 28.53125 19.097656 C 28.425781 19.28125 28.359375 19.484375 28.335938 19.695312 C 28.230469 20.6875 29.078125 21.09375 29.835938 20.519531 C 30.519531 20.003906 30.78125 18.863281 30.515625 18.015625 C 30.464844 18.039062 30.410156 18.054688 30.359375 18.070312 C 30.285156 18.089844 30.207031 18.097656 30.128906 18.097656 C 30.054688 18.101562 29.980469 18.09375 29.90625 18.082031 C 29.695312 18.046875 29.605469 18.0625 29.457031 18.089844 C 29.402344 18.101562 29.339844 18.113281 29.273438 18.121094 C 29.171875 18.136719 29.074219 18.140625 28.980469 18.132812 C 28.894531 18.503906 28.773438 18.679688 28.53125 19.097656 Z M 29.925781 17.960938 C 29.617188 17.910156 29.546875 17.957031 29.257812 18 C 28.542969 18.109375 28.101562 17.53125 27.910156 16.90625 C 27.726562 16.300781 27.742188 15.640625 27.917969 15.03125 C 28.082031 14.449219 28.375 13.890625 28.703125 13.390625 C 29.800781 11.695312 29.363281 10.003906 28.324219 8.367188 C 28.292969 8.320312 28.269531 8.28125 28.257812 8.261719 C 28.25 8.238281 28.253906 8.234375 28.277344 8.238281 C 28.3125 8.25 28.390625 8.289062 28.464844 8.332031 C 28.578125 8.402344 28.691406 8.488281 28.800781 8.578125 C 30.574219 10.046875 32.183594 14.054688 31.589844 16.339844 C 31.445312 16.886719 31.121094 17.507812 30.632812 17.816406 C 30.535156 17.878906 30.4375 17.921875 30.328125 17.953125 C 30.195312 17.988281 30.0625 17.984375 29.925781 17.960938 Z M 27.785156 16.953125 C 27.71875 16.808594 27.648438 16.660156 27.578125 16.507812 C 27.292969 15.871094 27.078125 15.171875 26.945312 14.453125 C 26.710938 13.210938 26.679688 11.617188 27.101562 10.398438 C 27.21875 10.0625 27.378906 9.742188 27.597656 9.492188 C 27.800781 9.253906 27.71875 9.480469 27.679688 9.648438 C 27.421875 10.824219 27.664062 12.855469 28.148438 14.050781 C 28.019531 14.3125 27.90625 14.585938 27.816406 14.863281 C 27.636719 15.421875 27.570312 16.007812 27.6875 16.597656 C 27.707031 16.710938 27.742188 16.832031 27.785156 16.953125 Z M 30.234375 38.132812 C 30.464844 38.09375 30.695312 38.097656 30.902344 38.144531 C 31.183594 38.207031 31.472656 38.359375 31.621094 38.605469 C 31.757812 38.835938 31.753906 39.128906 31.652344 39.375 C 31.40625 39.976562 30.777344 39.90625 30.253906 39.699219 C 30.03125 39.613281 29.835938 39.488281 29.730469 39.363281 C 29.773438 39.335938 29.796875 39.320312 29.835938 39.285156 C 29.976562 39.167969 30.089844 39.015625 30.164062 38.84375 C 30.238281 38.679688 30.269531 38.492188 30.261719 38.308594 C 30.253906 38.25 30.246094 38.191406 30.234375 38.132812 Z M 28.90625 37.347656 C 29.15625 37.386719 29.4375 37.46875 29.664062 37.605469 C 30.601562 38.1875 29.925781 39.632812 28.871094 39.355469 C 28.546875 39.269531 28.160156 38.976562 27.933594 38.546875 C 27.96875 38.535156 28.003906 38.519531 28.035156 38.503906 C 28.324219 38.363281 28.585938 38.117188 28.769531 37.765625 C 28.816406 37.671875 28.851562 37.578125 28.875 37.492188 C 28.886719 37.441406 28.898438 37.394531 28.90625 37.347656 Z M 27.847656 36.214844 C 28.375 36.414062 29.046875 36.886719 28.632812 37.695312 C 28.0625 38.796875 26.695312 38.761719 26.152344 37.429688 C 26.242188 37.417969 26.335938 37.398438 26.425781 37.375 C 26.65625 37.3125 26.882812 37.207031 27.09375 37.078125 C 27.300781 36.945312 27.46875 36.804688 27.59375 36.652344 C 27.710938 36.511719 27.792969 36.367188 27.847656 36.214844 Z M 27.199219 34.714844 C 27.933594 35.429688 28.023438 36.316406 27.011719 36.949219 C 26.636719 37.179688 26.203125 37.328125 25.789062 37.277344 C 25.246094 37.214844 24.605469 36.707031 24.300781 35.699219 C 24.484375 35.761719 24.6875 35.800781 24.898438 35.808594 C 25.148438 35.820312 25.417969 35.796875 25.699219 35.734375 C 26.203125 35.617188 26.675781 35.382812 26.992188 35.019531 C 27.070312 34.925781 27.140625 34.824219 27.199219 34.714844 Z M 22.800781 33.332031 C 22.886719 34.230469 23.363281 35.167969 24.230469 35.515625 C 24.640625 35.675781 25.121094 35.707031 25.664062 35.582031 C 26.535156 35.382812 27.316406 34.816406 27.207031 33.796875 C 27.167969 33.449219 27.070312 33.136719 26.957031 32.886719 C 26.59375 33.328125 26.011719 33.601562 25.386719 33.726562 C 24.652344 33.875 23.847656 33.824219 23.269531 33.597656 C 23.191406 33.5625 23.113281 33.527344 23.039062 33.488281 C 22.953125 33.445312 22.875 33.390625 22.800781 33.332031 Z M 22.09375 30.96875 C 22.035156 31.839844 22.335938 32.9375 23.113281 33.355469 C 24.199219 33.9375 26.558594 33.710938 27.078125 32.386719 C 27.28125 31.867188 27.230469 31.238281 27.007812 30.667969 C 26.96875 30.722656 26.925781 30.773438 26.878906 30.820312 C 26.40625 31.300781 25.535156 31.582031 24.640625 31.636719 C 23.753906 31.691406 22.835938 31.523438 22.269531 31.113281 C 22.207031 31.066406 22.148438 31.019531 22.09375 30.96875 Z M 21.703125 28.03125 C 21.5 28.859375 21.554688 30.226562 22.191406 30.851562 C 23.199219 31.832031 26.097656 31.660156 26.894531 30.566406 C 27.367188 29.914062 27.386719 28.875 27.082031 28.125 C 27.054688 28.164062 27.019531 28.203125 26.988281 28.242188 C 26.734375 28.527344 26.367188 28.746094 25.9375 28.898438 C 25.316406 29.113281 24.5625 29.183594 23.855469 29.097656 C 23.136719 29.007812 22.457031 28.761719 21.988281 28.339844 C 21.882812 28.246094 21.785156 28.144531 21.703125 28.03125 Z M 21.59375 27.503906 C 21.445312 27.074219 21.40625 26.554688 21.519531 25.992188 C 21.527344 25.960938 21.582031 25.726562 21.625 25.5625 C 21.851562 25.902344 22.214844 26.160156 22.792969 26.332031 C 23.378906 26.503906 24.089844 26.578125 24.769531 26.546875 C 25.421875 26.519531 26.050781 26.390625 26.535156 26.15625 C 26.820312 26.019531 27.03125 25.84375 27.179688 25.644531 C 27.296875 26.105469 27.378906 26.628906 27.332031 27.058594 C 27.28125 27.507812 27.121094 27.863281 26.875 28.140625 C 25.75 29.402344 22.21875 29.289062 21.59375 27.503906 Z M 25.421875 18.398438 C 25.429688 18.582031 25.410156 18.789062 25.332031 18.960938 C 25.3125 18.996094 25.300781 19.015625 25.300781 19.015625 C 25.378906 18.632812 25.320312 18.304688 25.101562 17.9375 C 24.992188 17.757812 24.855469 17.59375 24.710938 17.457031 C 24.632812 17.386719 24.578125 17.34375 24.578125 17.347656 C 24.609375 17.394531 24.636719 17.449219 24.660156 17.507812 C 24.972656 18.234375 24.582031 18.761719 24.710938 19.320312 C 24.722656 19.367188 24.730469 19.410156 24.742188 19.449219 C 25.222656 19.25 25.667969 19.394531 26.039062 19.667969 C 26.046875 19.671875 26.046875 19.664062 26.042969 19.648438 C 25.988281 19.25 25.726562 18.742188 25.460938 18.445312 C 25.4375 18.417969 25.421875 18.398438 25.421875 18.398438 Z M 21.46875 23.558594 C 21.566406 22.066406 22.097656 20.324219 22.828125 19.785156 C 23.171875 19.535156 23.578125 19.402344 24.015625 19.597656 C 24.578125 19.855469 24.203125 19.855469 24.765625 19.597656 C 25.203125 19.402344 25.609375 19.535156 25.957031 19.785156 C 26.667969 20.3125 27.3125 22.199219 27.382812 23.804688 C 27.425781 24.71875 27.394531 25.570312 26.46875 26.019531 C 25.515625 26.480469 23.949219 26.511719 22.835938 26.183594 C 21.445312 25.777344 21.386719 24.816406 21.46875 23.558594 Z M 23.359375 18.398438 C 23.351562 18.582031 23.371094 18.789062 23.449219 18.960938 C 23.46875 18.996094 23.480469 19.015625 23.480469 19.015625 C 23.402344 18.632812 23.460938 18.304688 23.679688 17.9375 C 23.789062 17.757812 23.925781 17.59375 24.070312 17.457031 C 24.148438 17.386719 24.207031 17.34375 24.203125 17.347656 C 24.175781 17.394531 24.148438 17.449219 24.121094 17.507812 C 23.808594 18.234375 24.199219 18.761719 24.070312 19.320312 C 24.0625 19.367188 24.050781 19.410156 24.039062 19.449219 C 23.558594 19.25 23.113281 19.394531 22.742188 19.667969 C 22.738281 19.671875 22.738281 19.664062 22.738281 19.648438 C 22.792969 19.25 23.058594 18.742188 23.320312 18.445312 C 23.34375 18.417969 23.359375 18.398438 23.359375 18.398438 Z M 20.09375 19.382812 C 20.207031 19.558594 20.285156 19.757812 20.320312 19.96875 C 20.484375 20.953125 19.65625 21.402344 18.867188 20.871094 C 18.074219 20.335938 17.765625 19 18.152344 18.121094 C 18.167969 18.125 18.1875 18.132812 18.203125 18.136719 C 18.285156 18.152344 18.359375 18.160156 18.4375 18.160156 C 18.515625 18.15625 18.589844 18.148438 18.664062 18.136719 C 18.871094 18.09375 18.960938 18.109375 19.109375 18.132812 C 19.164062 18.144531 19.226562 18.152344 19.292969 18.160156 C 19.339844 18.167969 19.382812 18.171875 19.425781 18.171875 C 19.4375 18.171875 19.449219 18.175781 19.460938 18.179688 C 19.484375 18.183594 19.507812 18.1875 19.527344 18.191406 C 19.652344 18.75 19.773438 18.894531 20.09375 19.382812 Z M 19.609375 21.21875 C 19.6875 21.28125 19.785156 21.34375 19.863281 21.390625 C 20.414062 21.714844 20.980469 21.761719 21.601562 21.894531 C 21.722656 21.332031 21.882812 20.910156 22.09375 20.46875 C 21.648438 20.144531 21.070312 19.925781 20.535156 19.984375 C 20.5 19.984375 20.472656 19.988281 20.449219 19.996094 C 20.496094 20.335938 20.429688 20.625 20.289062 20.832031 C 20.21875 20.933594 20.132812 21.019531 20.035156 21.082031 C 19.933594 21.144531 19.820312 21.1875 19.699219 21.207031 C 19.671875 21.210938 19.640625 21.214844 19.609375 21.21875 Z M 18.636719 18 C 18.945312 17.941406 19.015625 17.988281 19.308594 18.023438 C 20.023438 18.117188 20.449219 17.523438 20.625 16.898438 C 20.796875 16.289062 20.761719 15.625 20.574219 15.027344 C 20.394531 14.445312 20.085938 13.894531 19.75 13.402344 C 18.609375 11.734375 19.003906 10.035156 20 8.371094 C 20.027344 8.324219 20.050781 8.285156 20.058594 8.261719 C 20.070312 8.238281 20.066406 8.238281 20.042969 8.242188 C 20.003906 8.253906 19.929688 8.292969 19.859375 8.339844 C 19.746094 8.414062 19.632812 8.5 19.527344 8.59375 C 17.792969 10.105469 16.285156 14.152344 16.9375 16.425781 C 17.09375 16.964844 17.433594 17.578125 17.929688 17.875 C 18.023438 17.933594 18.128906 17.976562 18.234375 18.003906 C 18.371094 18.035156 18.5 18.027344 18.636719 18 Z M 20.753906 16.941406 C 20.816406 16.796875 20.882812 16.644531 20.949219 16.488281 C 21.21875 15.847656 21.414062 15.140625 21.53125 14.417969 C 21.734375 13.171875 21.722656 11.578125 21.273438 10.371094 C 21.144531 10.035156 20.976562 9.722656 20.753906 9.476562 C 20.546875 9.246094 20.632812 9.464844 20.671875 9.636719 C 20.964844 10.804688 20.769531 12.839844 20.316406 14.050781 C 20.453125 14.308594 20.574219 14.574219 20.667969 14.851562 C 20.863281 15.40625 20.945312 15.992188 20.84375 16.585938 C 20.824219 16.699219 20.792969 16.820312 20.753906 16.941406 Z M 31.5625 39.792969 C 31.859375 39.46875 31.96875 38.996094 31.800781 38.582031 C 31.796875 38.578125 31.777344 38.527344 31.777344 38.519531 C 31.792969 38.515625 31.863281 38.511719 31.96875 38.519531 C 32.289062 38.535156 32.769531 38.570312 33.007812 38.804688 C 33.371094 39.164062 33.1875 39.761719 32.714844 39.894531 C 32.367188 39.992188 31.8125 39.898438 31.5625 39.792969 Z M 45.878906 24.457031 C 46.046875 20.902344 45.328125 17.347656 43.726562 14.039062 C 42.433594 11.363281 40.667969 9.074219 38.578125 7.214844 C 36.410156 5.285156 33.890625 3.820312 31.195312 2.882812 C 25.894531 1.039062 19.894531 1.21875 14.449219 3.859375 C 11.777344 5.152344 9.488281 6.917969 7.632812 9.007812 C 5.703125 11.179688 4.238281 13.699219 3.300781 16.398438 C 2.363281 19.101562 1.949219 21.984375 2.117188 24.882812 C 2.28125 27.675781 2.984375 30.484375 4.277344 33.15625 C 6.71875 38.195312 10.859375 41.941406 15.746094 44.054688 C 20.011719 45.902344 24.84375 46.511719 29.617188 45.667969 C 27.835938 46.121094 26.027344 46.355469 24.234375 46.371094 C 21.601562 46.398438 18.996094 45.960938 16.53125 45.105469 C 13.730469 44.132812 11.117188 42.613281 8.867188 40.609375 C 6.699219 38.679688 4.867188 36.300781 3.523438 33.519531 C 2.179688 30.746094 1.449219 27.832031 1.28125 24.933594 C 1.105469 21.921875 1.535156 18.929688 2.507812 16.125 C 3.480469 13.320312 5 10.703125 7.003906 8.449219 C 8.929688 6.28125 11.308594 4.449219 14.085938 3.105469 C 16.859375 1.757812 19.773438 1.027344 22.667969 0.859375 C 25.675781 0.683594 28.667969 1.113281 31.46875 2.089844 C 34.273438 3.0625 36.886719 4.582031 39.136719 6.585938 C 41.304688 8.515625 43.136719 10.898438 44.480469 13.671875 C 46.132812 17.089844 46.894531 20.816406 46.738281 24.53125 C 46.527344 29.628906 44.609375 35.25 40.199219 38.179688 C 38.253906 39.476562 35.941406 40.148438 33.378906 39.980469 C 33.238281 39.972656 33.097656 39.960938 32.957031 39.945312 C 33.507812 39.535156 33.363281 39.078125 33.191406 38.808594 C 41.214844 39.722656 45.535156 31.757812 45.878906 24.457031 Z M 29.113281 20.902344 C 29.039062 20.96875 28.949219 21.039062 28.871094 21.089844 C 28.335938 21.445312 27.75 21.46875 27.140625 21.636719 C 26.984375 21.082031 26.832031 20.722656 26.597656 20.292969 C 27.023438 19.945312 27.585938 19.695312 28.121094 19.722656 C 28.15625 19.722656 28.1875 19.726562 28.210938 19.730469 C 28.183594 20.074219 28.265625 20.355469 28.417969 20.554688 C 28.488281 20.652344 28.582031 20.734375 28.683594 20.792969 C 28.785156 20.847656 28.902344 20.886719 29.023438 20.898438 C 29.054688 20.902344 29.082031 20.902344 29.113281 20.902344" fill-rule="evenodd"/></g></svg>